<?xml version="1.0" encoding="iso-8859-1"?>
<!-- Uploaded to: SVG Repo, www.svgrepo.com, Generator: SVG Repo Mixer Tools -->
<!DOCTYPE svg PUBLIC "-//W3C//DTD SVG 1.1//EN" "http://www.w3.org/Graphics/SVG/1.1/DTD/svg11.dtd">
<svg version="1.1" id="Capa_1" xmlns="http://www.w3.org/2000/svg" xmlns:xlink="http://www.w3.org/1999/xlink" 
	 viewBox="0 0 297.498 297.498" xml:space="preserve">
<g id="XMLID_34_">
	<g>
		<polygon style="fill:#C7A488;" points="213.359,191.288 203.049,278.418 94.449,278.418 84.149,191.288 		"/>
		<rect x="70.429" y="137.758" style="fill:#E98547;" width="156.64" height="34.7"/>
		<path style="fill:#7AC1A3;" d="M139.269,64.498c-1.16,0.03-2.4,0.04-3.7,0.04c-16.74,0-25.69-2.54-28.49-4.92
			c-4.63-3.93-11.77-21.21-17.38-38.85c18.31,2.68,36.51,6.92,41.15,10.86C134.989,35.148,138.169,49.978,139.269,64.498z"/>
		<path style="fill:#7AC1A3;" d="M198.379,59.628c-8.97,6.38-17.14,11.14-20.11,11.47c-2.65-0.02-9.18-4-15.74-9.29
			c5.75-5.64,11.66-10.05,14.18-10.26C180.229,51.548,189.139,55.098,198.379,59.628z"/>
		<path d="M245.899,128.338v53.54c0,5.2-4.21,9.41-9.41,9.41h-4.17l-11.55,97.65c-0.56,4.74-4.58,8.31-9.35,8.31H86.079
			c-4.77,0-8.78-3.57-9.35-8.31l-11.55-97.65h-4.16c-5.2,0-9.42-4.21-9.42-9.41v-53.54c0-5.2,4.22-9.41,9.42-9.41h78.66v-35.6
			c-1.29,0.02-2.67,0.04-4.11,0.04c-19.93,0-33.24-3.07-40.68-9.39c-13.26-11.26-25.12-53.52-27.36-61.87
			c-0.81-2.99-0.09-6.18,1.91-8.54s5.05-3.58,8.11-3.27c8.61,0.86,52.23,5.72,65.49,16.98c5.57,4.73,9.59,13.16,12.21,25.63
			c6.05-5.06,13.19-9.58,19.87-10.13c0.51-0.04,1.05-0.06,1.59-0.06c12.73,0,36.71,13.26,43.76,17.33c2.68,1.54,4.43,4.31,4.68,7.39
			c0.25,3.08-1.03,6.09-3.42,8.05c-8.55,7-29.76,23.39-41.96,24.38c-0.48,0.04-0.98,0.06-1.48,0.06c-6.31,0-13.45-3.47-19.78-7.66
			v36.66h77.98C241.689,118.928,245.899,123.138,245.899,128.338z M227.069,172.458v-34.7H70.429v34.7H227.069z M203.049,278.418
			l10.31-87.13H84.149l10.3,87.13H203.049z M178.269,71.098c2.97-0.33,11.14-5.09,20.11-11.47c-9.24-4.53-18.15-8.08-21.67-8.08
			c-2.52,0.21-8.43,4.62-14.18,10.26C169.089,67.098,175.619,71.078,178.269,71.098z M135.569,64.538c1.3,0,2.54-0.01,3.7-0.04
			c-1.1-14.52-4.28-29.35-8.42-32.87c-4.64-3.94-22.84-8.18-41.15-10.86c5.61,17.64,12.75,34.92,17.38,38.85
			C109.879,61.998,118.829,64.538,135.569,64.538z"/>
	</g>
	<g>
	</g>
</g>
</svg>